# xmcd
#
# Track frame offsets: 
#        150
#        15775
#        33670
#        50962
#        58787
#        76815
#        93101
#        112050
#        125268
#        141455
#        159774
#        172700
#        190030
#        207552
#        223050
#        239786
#        246086
#        260629
#        277718
#        295629
#        314039
#
# Disc length: 4408 seconds
#
# Revision: 0
# Processed by: cddbd v1.5.2PL0 Copyright (c) Steve Scherf et al.
# Submitted via: ExactAudioCopyFreeDBPlugin 1.0
#
DISCID=30113615
DTITLE=RB - RB Nr. 1 Vol. 1
DYEAR=2004
DGENRE=Rap
TTITLE0=Jack Orsen, Jaysus, Lil Kay and Fumanschu - Yo Deutschland!
TTITLE1=Smexer, Kid Kobra and Justus - Kampfmusik
TTITLE2=Masta Jomes, C and Tony Tone - Na Wer?
TTITLE3=Fumanschu, Gris and Zett - Track 15
TTITLE4=Staiger, Meyah Don and Jack Orsen - Pentagon
TTITLE5=Justus and Kid Kobra - Woher ich komm
TTITLE6=Eko Fresh and Azra - Fake Fan
TTITLE7=Fumanschu, Justus, Big D. and Jack Orsen - Fahne
TTITLE8=Gris, Meyah Don and Estess - - so schlimm
TTITLE9=Big D., Fumanschu, Jack Orsen and Justus - Oh Yeah!
TTITLE10=Meyah Don and Rhymin Simon - Hangover
TTITLE11=Fumanschu, Jack Orsen and Kid Kobra - Sex Song
TTITLE12=Justus and Meyah Don - Tha Beach
TTITLE13=Smexer, Kid Kobra and Prinz Porno - Über Nacht
TTITLE14=Gris, Fuat and Zett - ...Keksin...
TTITLE15=Fumanschu - Sax Skit
TTITLE16=Smexer, Justus and Kid Kobra - R zu dem B
TTITLE17=Jaysus, Prinz Porno, Jack Orsen and Lil Kay - Van Damme
TTITLE18=Justus, B-A-Di and Zett - Das beste Label der besten Stadt
TTITLE19=Prinz Porno, Fumanschu and Rufmord - Royal Biznezz
TTITLE20=Biztram and Rhymin Simon - Baby Girl
EXTD=
EXTT0=
EXTT1=
EXTT2=
EXTT3=
EXTT4=
EXTT5=
EXTT6=
EXTT7=
EXTT8=
EXTT9=
EXTT10=
EXTT11=
EXTT12=
EXTT13=
EXTT14=
EXTT15=
EXTT16=
EXTT17=
EXTT18=
EXTT19=
EXTT20=
PLAYORDER=
